<svg fill="#081D38" xmlns="http://www.w3.org/2000/svg" xmlns:xlink="http://www.w3.org/1999/xlink" version="1.1" x="0px" y="0px" viewBox="0 0 100 100" enable-background="new 0 0 100 100" xml:space="preserve"><g><path d="M53.591,95C29.104,95,9.182,75.076,9.182,50.59c0-24.487,19.923-44.409,44.409-44.409C78.079,6.181,98,26.103,98,50.59   C98,75.076,78.079,95,53.591,95z M53.591,11.616c-21.49,0-38.974,17.483-38.974,38.974s17.484,38.975,38.974,38.975   c21.491,0,38.974-17.484,38.974-38.975S75.082,11.616,53.591,11.616z"></path><path d="M53.591,29.009c-11.899,0-21.581,9.682-21.581,21.581c0,11.9,9.682,21.583,21.581,21.583   c11.9,0,21.582-9.683,21.582-21.583C75.173,38.69,65.491,29.009,53.591,29.009z M53.591,34.958c1.166,0,2.112,0.947,2.112,2.113   c0,1.166-0.946,2.112-2.112,2.112c-1.168,0-2.112-0.947-2.112-2.112C51.479,35.904,52.423,34.958,53.591,34.958z M40.07,52.703   c-1.165,0-2.112-0.947-2.112-2.113c0-1.167,0.947-2.112,2.112-2.112c1.169,0,2.113,0.945,2.113,2.112   C42.184,51.756,41.239,52.703,40.07,52.703z M53.591,66.223c-1.168,0-2.112-0.946-2.112-2.112c0-1.168,0.944-2.112,2.112-2.112   c1.166,0,2.112,0.944,2.112,2.112C55.703,65.276,54.757,66.223,53.591,66.223z M53.591,56.684c-3.365,0-6.094-2.727-6.094-6.094   c0-3.369,2.729-6.093,6.094-6.093c3.366,0,6.093,2.724,6.093,6.093C59.684,53.957,56.957,56.684,53.591,56.684z M67.11,52.703   c-1.165,0-2.111-0.947-2.111-2.113c0-1.167,0.946-2.112,2.111-2.112c1.166,0,2.113,0.945,2.113,2.112   C69.224,51.756,68.276,52.703,67.11,52.703z"></path><path d="M30.463,91.83h-7.794l-0.549-0.409C9.106,81.671,1.641,66.788,1.641,50.59c0-16.198,7.465-31.08,20.479-40.83l0.549-0.41   h7.794l-0.042,23.451l-1.223,5.51c-2.011,3.833-3.03,7.964-3.03,12.278c0,4.314,1.019,8.446,3.03,12.278l0.197,0.561l1.068,5.626   V91.83z"></path></g></svg>