<svg fill="#081D38" xmlns="http://www.w3.org/2000/svg" xmlns:xlink="http://www.w3.org/1999/xlink" version="1.1" x="0px" y="0px" viewBox="0 0 343.77 262.852" style="enable-background:new 0 0 343.77 262.852;" xml:space="preserve"><g><path d="M163.931,176.34c25.349,0,46.096,19.625,47.92,44.501h54.256c4.72,0,8.547-3.826,8.547-8.543v-6.409   c0-4.718-3.827-8.545-8.547-8.545h-10.468c5.608-13.911,11.539-29.675,11.539-34.177c0-18.053-90.715-30.231-130.828-35.6   C164.936,71.247,259.016-18.16,228.679,3.244c-27.271,19.244-89.851,96.808-110.413,122.051c-0.391-0.045-0.615-0.07-0.615-0.07   S61.398,72.029,53.568,65.976C48.68,62.2,27.018,58.561,0,56.359v12.881c23.395,1.959,41.189,4.865,46.065,7.155   c4.378,3.738,26.692,25.729,47.377,47.978H0v96.468h116.015C117.841,195.965,138.587,176.34,163.931,176.34z"></path><path d="M163.931,185.953c-20.034,0-36.479,15.325-38.278,34.888c-0.105,1.174-0.171,2.359-0.171,3.562   c0,21.235,17.214,38.449,38.449,38.449c21.237,0,38.45-17.214,38.45-38.449c0-1.202-0.061-2.388-0.168-3.562   C200.414,201.279,183.965,185.953,163.931,185.953z M163.931,238.644c-7.865,0-14.238-6.378-14.238-14.241   c0-0.482,0.024-0.956,0.071-1.426c0.714-7.195,6.783-12.815,14.167-12.815c7.385,0,13.454,5.62,14.169,12.815   c0.047,0.47,0.073,0.943,0.073,1.426C178.173,232.266,171.797,238.644,163.931,238.644z"></path><path d="M328.425,163.439c6.313-1.6,12.033-5.879,14.145-16.753c2.586-22.215,1.123-35.346-5.682-55.52   c-5.035-14.643-17.41-19.279-25.947-17.15c-7.44,1.854-11.245,11.143-10.199,20.09c4.048-3.765,6.032-6.812,6.058-6.853   c1.885-3.027,5.125-4.827,8.679-4.827c1.88,0,3.724,0.523,5.331,1.513c4.79,2.945,6.293,9.24,3.348,14.03   c-0.904,1.443-5.838,8.881-15.752,16.255c-1.012,0.755-2.117,1.528-3.282,2.302c1.827,10.621,3.101,22.209,1.695,32.725   c-3.178,8.622-9.061,27.891-9.092,52.943c-0.002,15.705,2.362,33.699,9.319,52.483c1.869,5.042,6.645,8.161,11.725,8.161   c1.442,0,2.909-0.251,4.341-0.781c6.473-2.399,9.778-9.591,7.38-16.064c-5.787-15.627-7.763-30.581-7.765-43.8   c-0.005-14.127,2.279-26.24,4.542-34.709C327.659,166.022,328.049,164.675,328.425,163.439z"></path><path d="M274.255,40.264c-0.391,0.09-0.777,0.174-1.172,0.273c-11.517,2.893-20.072,8.351-19.107,12.189   c0.303,1.203,1.504,2.104,3.365,2.685c4.078,1.275,11.326,1.015,19.234-0.972c10.48-2.633,18.482-7.386,19.115-11.113   c1.193,3.686-6.322,10.228-17.061,14.774c-2.051,0.868-4.074,1.602-6.016,2.196c4.113,10.301,15.307,16.229,26.361,13.452   c12.052-3.028,19.368-15.25,16.34-27.304c-3.027-12.052-15.252-19.368-27.303-16.34C282.03,31.606,277.218,35.376,274.255,40.264z"></path><path d="M259.844,129.648h-0.106c-1.272,0-2.564-0.035-3.861-0.086l4.976,5.758c1.968,2.278,5.413,2.53,7.689,0.563   c1.994-1.725,2.436-4.576,1.196-6.787c-3.145,0.345-6.427,0.553-9.885,0.553H259.844z"></path><path d="M248.993,108.606c0.395,0,0.797,0.023,1.191,0.07c0.754,0.088,1.506,0.165,2.255,0.232l-4.742-5.487   c2.219-4.688,1.63-10.444-1.982-14.62c-3.608-4.18-9.219-5.598-14.179-4.082l5.497,6.362c1.971,2.278,1.72,5.723-0.56,7.691   c-2.28,1.967-5.722,1.716-7.692-0.561l-5.496-6.361c-2.22,4.688-1.628,10.441,1.982,14.621c3.609,4.178,9.217,5.595,14.178,4.079   l1.609,1.863C242.935,110.081,245.806,108.606,248.993,108.606z"></path><path d="M322.284,96.818c2.313-3.765,1.136-8.691-2.627-11.004c-3.75-2.306-8.658-1.145-10.98,2.588   c-0.002,0.001-0.006,0.006-0.025,0.038l0.001,0.001c-0.355,0.553-4.194,6.241-11.857,11.727   c-7.965,5.682-19.842,11.257-37.059,11.281c-3.089,0-6.356-0.184-9.809-0.587c-4.389-0.512-8.363,2.631-8.875,7.018   c-0.512,4.388,2.629,8.362,7.018,8.875c4.055,0.473,7.944,0.694,11.666,0.694c0.035,0,0.072,0,0.106,0   c21.427,0,37.163-7.459,47.248-14.989C317.232,104.915,321.911,97.411,322.284,96.818z"></path></g></svg>