<svg fill="#081D38" xmlns="http://www.w3.org/2000/svg" xmlns:xlink="http://www.w3.org/1999/xlink" version="1.1" x="0px" y="0px" viewBox="206 206 100 100" enable-background="new 206 206 100 100" xml:space="preserve"><path d="M294.107,212.02c-1.729-1.73-4.543-1.731-6.271-0.002l-8.158,8.157c-3.519,3.518-3.519,9.244,0.001,12.763l4.235,4.236  c0.039,0.037,0.046,0.079,0.046,0.109c0,0.027-0.007,0.066-0.039,0.101c-0.004,0.004-0.007,0.005-0.009,0.008l-0.183,0.185  c-0.541-0.277-1.142-0.425-1.765-0.425c-1.041,0-2.019,0.404-2.753,1.141l-2.262,2.261c-1.128,1.128-1.415,2.782-0.865,4.179  c-0.062,0.037-0.118,0.08-0.17,0.131c-0.061,0.062-0.158,0.062-0.219,0c0,0,0,0,0-0.001c-3.521-3.517-9.245-3.517-12.764,0.001  c-0.001,0.004-0.003,0.006-0.007,0.007l-3.471,3.472l-2.834-2.835c-1.105-1.104-2.579-1.713-4.149-1.713  c-1.463,0-2.863,0.537-3.931,1.504c-0.074,0.066-0.15,0.138-0.222,0.208l-24.139,24.14c-0.072,0.07-0.142,0.147-0.203,0.215  c0,0.002-0.002,0.003-0.004,0.003c0,0.003-0.002,0.005-0.004,0.005c0,0.002,0,0.002,0,0.002c-1.708,1.89-1.979,4.639-0.757,6.807  l-2.824,2.823v0.002l-2.625,2.625c-1.582,1.581-1.582,4.155,0,5.736l0.816,0.816c0.79,0.79,1.83,1.188,2.869,1.188  c1.04,0,2.079-0.397,2.869-1.188l5.296-5.296l1.377,1.379l-8.794,8.794c-1.582,1.583-1.582,4.155,0,5.737l0.816,0.816  c0.765,0.764,1.784,1.185,2.869,1.185c1.087,0,2.104-0.421,2.868-1.185l0.525-0.524c0,0,0,0,0.001,0c0,0,0,0,0-0.003l2.184-2.184  c0.002,0,0.002-0.001,0.002-0.001c0.002,0,0.002-0.002,0.002-0.002l6.239-6.24c0.872,0.488,1.867,0.754,2.875,0.754  c1.464,0,2.863-0.537,3.93-1.506c0.076-0.069,0.152-0.14,0.22-0.209l24.141-24.139c0.072-0.072,0.143-0.148,0.203-0.215  c0.001-0.003,0.003-0.006,0.007-0.009c0,0,0,0,0-0.002c0.002,0,0.002,0,0.002,0c2.092-2.323,2.001-5.867-0.21-8.08l-2.904-2.904  l1.913-1.912c0-0.002,0-0.002,0.001-0.002l1.888-1.888v-0.002c0.062-0.057,0.158-0.057,0.218,0.002  c1.705,1.705,3.971,2.643,6.383,2.643c1.148,0,2.265-0.212,3.302-0.62c1.038-0.408,1.997-1.009,2.834-1.789  c0.513,0.242,1.075,0.375,1.661,0.375c1.039,0,2.018-0.404,2.751-1.139l2.262-2.261c0.734-0.735,1.14-1.713,1.14-2.752  c0-0.443-0.078-0.873-0.218-1.279c1.703-1.704,2.642-3.97,2.642-6.381c-0.003-2.411-0.939-4.676-2.644-6.379l-4.473-4.472  c-0.036-0.038-0.044-0.08-0.044-0.109c0-0.029,0.008-0.074,0.044-0.111l8.483-8.482c0,0,0,0,0.003-0.002  C295.836,216.56,295.836,213.747,294.107,212.02z M261.215,263.301l-19.069,19.069c-0.181,0.18-0.415,0.271-0.652,0.271  c-0.236,0-0.472-0.091-0.653-0.271c-0.36-0.36-0.36-0.943,0-1.306l19.069-19.068c0.358-0.359,0.944-0.359,1.305,0  C261.574,262.357,261.574,262.941,261.215,263.301z M232.007,272.231l19.068-19.068c0.36-0.36,0.945-0.36,1.305,0  c0.36,0.36,0.36,0.945,0,1.305l-19.068,19.068c-0.179,0.18-0.415,0.271-0.651,0.271c-0.237,0-0.473-0.091-0.653-0.271  C231.647,273.175,231.647,272.592,232.007,272.231z M255.492,257.58c0.36-0.361,0.945-0.361,1.305,0c0.36,0.36,0.36,0.943,0,1.306  l-19.068,19.065c-0.18,0.182-0.415,0.272-0.651,0.272s-0.473-0.09-0.654-0.272c-0.359-0.358-0.359-0.942,0-1.305L255.492,257.58z   M219.885,287.378l-0.816-0.816c-0.79-0.79-0.854-2.03-0.197-2.896l3.91,3.909C221.915,288.229,220.675,288.165,219.885,287.378z   M224.103,286.286l-3.943-3.942l0.88-0.883l3.943,3.942L224.103,286.286z M225.88,299.452c-0.593,0-1.148-0.229-1.563-0.645  l-0.816-0.816c-0.817-0.819-0.858-2.124-0.119-2.993l3.929,3.932C226.912,299.264,226.412,299.452,225.88,299.452z M228.621,297.629  l-3.943-3.942l0.882-0.882l3.943,3.942L228.621,297.629z M240.575,290.066c-0.88,0-1.748-0.291-2.442-0.818  c-0.141-0.108-0.275-0.226-0.405-0.354l-12.246-12.247c-0.127-0.127-0.245-0.261-0.354-0.403c-0.972-1.275-1.077-2.971-0.348-4.334  l17.686,17.686C241.891,289.901,241.246,290.066,240.575,290.066z M267.563,259.059c1.277,1.278,1.519,3.203,0.7,4.738  l-17.683-17.684c0.577-0.306,1.223-0.473,1.892-0.473c1.078,0,2.088,0.417,2.845,1.174l3.485,3.483c0,0.001,0,0.001,0.002,0.001  v0.002L267.563,259.059z M287.871,246.949l-2.262,2.263c-0.385,0.386-0.9,0.599-1.446,0.599c-0.547,0-1.061-0.213-1.446-0.599  l-4.461-4.461c-0.798-0.798-0.798-2.096,0-2.895l2.261-2.259c0.386-0.388,0.901-0.6,1.448-0.6c0.546,0,1.059,0.212,1.444,0.598  l4.462,4.462c0.386,0.386,0.601,0.901,0.601,1.447C288.472,246.051,288.257,246.564,287.871,246.949z"></path></svg>