<svg fill="#081D38" xmlns="http://www.w3.org/2000/svg" xmlns:xlink="http://www.w3.org/1999/xlink" viewBox="0 0 100 100" version="1.1" x="0px" y="0px"><title>tool-1</title><desc>Created with Sketch.</desc><g stroke="none" stroke-width="1" fill="none" fill-rule="evenodd"><path d="M87.9793829,20 L64.364211,20 C60.1962905,20 56.9386754,23.6117919 57.3740389,27.7573861 C59.572168,48.6680271 70.5820949,67.8108285 87.8565881,80.2202106 C90.841213,82.3635387 95,80.230359 95,76.5556474 L95,27.0206171 C95,23.1429389 91.8570611,20 87.9793829,20 M42.6650444,27.0206171 L42.6650444,76.5556474 C42.6650444,80.230359 38.5062574,82.3635387 35.5216325,80.2202106 C18.2471393,67.8108285 7.2372124,48.6680271 5.03908337,27.7573861 C4.60371987,23.6117919 7.8613349,20 12.0292554,20 L35.6444274,20 C39.5221056,20 42.6650444,23.1429389 42.6650444,27.0206171" fill="#081D38"></path></g></svg>