<svg fill="#081D38" xmlns="http://www.w3.org/2000/svg" xmlns:xlink="http://www.w3.org/1999/xlink" version="1.1" x="0px" y="0px" viewBox="0 0 52.504 39.468" style="enable-background:new 0 0 52.504 39.468;" xml:space="preserve"><path d="M4.617,37.892c1.628,1.04,3.478,1.576,5.364,1.576c0.722,0,1.449-0.078,2.171-0.237c0.346-0.076,0.684-0.172,1.016-0.282  c0.032,0.003,0.059,0.018,0.091,0.018h34.218c0.005,0,0.009,0.001,0.014,0.001c0.361,0,0.726-0.039,1.086-0.119  c1.305-0.287,2.419-1.065,3.139-2.19c0.719-1.126,0.956-2.464,0.669-3.768c-0.055-0.248-0.143-0.481-0.232-0.714  c-0.003-0.012,0-0.023-0.003-0.035L44.558,7.311c-0.031-0.343-0.075-0.687-0.15-1.029c-0.46-2.087-1.705-3.87-3.505-5.021  c-1.801-1.15-3.942-1.53-6.028-1.071c-1.96,0.432-3.645,1.563-4.796,3.19c-0.02,0.014-0.044,0.017-0.064,0.033L9.78,19.47  c-0.638,0.014-1.284,0.087-1.93,0.229c-5.385,1.187-8.801,6.532-7.614,11.917C0.81,34.226,2.366,36.454,4.617,37.892z   M19.767,27.314c-0.831-3.769-3.704-6.567-7.197-7.504L28.658,7.042c-0.106,0.884-0.073,1.787,0.124,2.682  c0.46,2.087,1.705,3.87,3.505,5.021c1.303,0.831,2.782,1.261,4.291,1.261c0.578,0,1.16-0.063,1.737-0.19  c2.087-0.459,3.87-1.704,5.021-3.505c0.158-0.247,0.298-0.502,0.427-0.761l5.417,17.718c-0.876-0.314-1.823-0.388-2.753-0.184  c-1.305,0.287-2.419,1.065-3.138,2.19c-0.72,1.126-0.957,2.464-0.67,3.768c0.157,0.713,0.472,1.36,0.898,1.926H16.611  c0.692-0.612,1.306-1.319,1.817-2.118C19.866,32.599,20.341,29.922,19.767,27.314z M50.03,35.581  c-0.432,0.675-1.101,1.142-1.883,1.314s-1.586,0.029-2.261-0.401c-0.675-0.432-1.142-1.101-1.314-1.883  c-0.356-1.615,0.669-3.219,2.284-3.575c0.217-0.048,0.434-0.07,0.646-0.07c1.376,0,2.62,0.956,2.929,2.354  C50.605,34.104,50.462,34.907,50.03,35.581z M35.304,2.143c0.434-0.096,0.866-0.142,1.292-0.142c2.754,0,5.242,1.912,5.858,4.71  c0.345,1.565,0.06,3.171-0.804,4.521c-0.862,1.351-2.2,2.284-3.765,2.629c-3.231,0.713-6.438-1.337-7.15-4.567  C30.023,6.063,32.073,2.855,35.304,2.143z M8.279,21.653c0.578-0.127,1.154-0.188,1.723-0.188c3.672,0,6.989,2.55,7.812,6.279  c0.949,4.309-1.783,8.585-6.091,9.534c-4.317,0.945-8.586-1.784-9.534-6.091C1.239,26.878,3.972,22.602,8.279,21.653z"></path><path d="M5.112,32.35l3.118-0.479c0.053,0.039,0.099,0.086,0.155,0.122c0.2,0.128,0.414,0.224,0.633,0.3l-0.826,2.123l1.863,0.725  l1.138-2.924c0.281-0.121,0.531-0.293,0.761-0.492l1.43,1.783l1.561-1.252l-1.973-2.46c0.033-0.295,0.027-0.595-0.031-0.893  l2.253-0.346l-0.305-1.977L11.77,27.06c-0.241-0.177-0.504-0.32-0.787-0.419l0.828-2.126l-1.863-0.727l-1.14,2.927  c-0.283,0.123-0.532,0.294-0.758,0.49l-1.43-1.783l-1.561,1.252l1.974,2.461C7,29.428,7.004,29.726,7.062,30.028L4.81,30.373  L5.112,32.35z M10.844,30.003c-0.144,0.226-0.366,0.381-0.628,0.438c-0.262,0.055-0.529,0.011-0.753-0.134  c-0.226-0.144-0.381-0.366-0.438-0.627c-0.118-0.539,0.223-1.074,0.761-1.192c0.538-0.116,1.074,0.222,1.192,0.762  C11.035,29.511,10.987,29.779,10.844,30.003z"></path><path d="M34.71,10.952c0.57,0.363,1.217,0.552,1.877,0.552c0.253,0,0.508-0.028,0.761-0.084c1.885-0.415,3.08-2.286,2.665-4.171  c-0.414-1.884-2.285-3.082-4.171-2.665c-1.885,0.415-3.08,2.286-2.665,4.171C33.378,9.668,33.923,10.449,34.71,10.952z   M36.272,6.537c0.108-0.023,0.217-0.035,0.323-0.035c0.688,0,1.311,0.478,1.465,1.177c0.178,0.809-0.334,1.61-1.143,1.788  c-0.39,0.089-0.792,0.015-1.13-0.2c-0.338-0.216-0.571-0.55-0.657-0.941C34.952,7.517,35.464,6.715,36.272,6.537z"></path><rect x="46.503" y="32.967" width="2" height="2"></rect></svg>