<svg fill="#081D38" xmlns="http://www.w3.org/2000/svg" xmlns:xlink="http://www.w3.org/1999/xlink" version="1.1" x="0px" y="0px" viewBox="0 0 100 100" enable-background="new 0 0 100 100" xml:space="preserve"><path d="M89,32h-9c-1.657,0-3,1.343-3,3v3h-7.72l-6.78-7.075C61.935,30.334,61.151,30,60.334,30H51v-4h11c1.657,0,3-1.343,3-3  s-1.343-3-3-3H34c-1.657,0-3,1.343-3,3s1.343,3,3,3h11v4h-6c-0.791,0-1.551,0.312-2.112,0.87L27.681,40H21c-1.657,0-3,1.343-3,3v10  h-4V35c0-1.657-1.343-3-3-3s-3,1.343-3,3v42c0,1.657,1.343,3,3,3s3-1.343,3-3V59h4v10c0,1.657,1.343,3,3,3h10.729l6.866,7.087  C39.16,79.671,39.938,80,40.75,80H65c0.846,0,1.651-0.356,2.22-0.982L76.327,69H77v3c0,1.657,1.343,3,3,3h9c1.657,0,3-1.343,3-3V35  C92,33.343,90.657,32,89,32z M86,69h-3v-3c0-1.657-1.343-3-3-3h-5c-0.846,0-1.651,0.356-2.22,0.982L63.673,74H42.021l-6.866-7.087  C34.59,66.329,33.812,66,33,66h-9V46h4.916c0.791,0,1.551-0.312,2.112-0.87L40.235,36h18.818l6.78,7.075  C66.399,43.666,67.183,44,68,44h12c1.657,0,3-1.343,3-3v-3h3V69z M56,42.698c0.013,0.179,0.011,0.378,0,0.552l-1,14.5  c-0.114,1.657-1.55,2.907-3.207,2.793c-1.517-0.104-2.692-1.317-2.793-2.793l-1-14.5c-0.152-2.209,1.515-4.123,3.725-4.275  C53.934,38.822,55.848,40.489,56,42.698z M56,67.283c0,2.21-1.791,4-4,4s-4-1.79-4-4c0-2.209,1.791-4,4-4S56,65.074,56,67.283z"></path></svg>